<svg xmlns="http://www.w3.org/2000/svg" xml:space="preserve" width="512" height="512" fill-rule="evenodd" stroke-linejoin="round" stroke-miterlimit="2" clip-rule="evenodd"><path d="M-22.717-16.26h601.36v566.096h-601.36z"/><path fill="#fff" d="M95.882 219.879c22.012 0 39.851-17.847 39.851-39.851 0-22.011-17.84-39.858-39.85-39.858-22.012 0-39.851 17.847-39.851 39.858 0 22.004 17.84 39.85 39.85 39.85ZM259.52 220.62c22.01 0 39.857-17.84 39.857-39.845 0-22.018-17.846-39.857-39.857-39.857-22.005 0-39.851 17.84-39.851 39.857 0 22.005 17.846 39.844 39.85 39.844ZM416.113 256.592c22.012 0 39.851-17.84 39.851-39.851s-17.84-39.858-39.85-39.858c-22.012 0-39.851 17.847-39.851 39.858 0 22.011 17.84 39.85 39.85 39.85ZM240.304 376.116c22.01 0 39.85-17.847 39.85-39.85 0-22.012-17.84-39.859-39.85-39.859-22.012 0-39.851 17.847-39.851 39.858 0 22.004 17.84 39.85 39.85 39.85ZM202.947 277.352l36.511-52.442-11.865-8.267-28.195 40.494-63.26-44.728-8.357 11.809 75.166 53.134ZM278.687 298.93 351.7 192.466l5.185 3.354 19.516-29.586-17.42-11.732-92.74 135.652 12.445 8.776Z"/></svg>